<?xml version="1.0" encoding="UTF-8" standalone="no"?>
<svg
        xmlns:inkscape="http://www.inkscape.org/namespaces/inkscape"
        xmlns:sodipodi="http://sodipodi.sourceforge.net/DTD/sodipodi-0.dtd"
        xmlns:xlink="http://www.w3.org/1999/xlink"
        viewBox="0 0 512 512"
        version="1.1"
        id="svg11"
        sodipodi:docname="drizzle.svg"
        inkscape:version="1.2.2 (732a01da63, 2022-12-09)"
        xmlns="http://www.w3.org/2000/svg"
>
    <sodipodi:namedview
            id="namedview13"
            pagecolor="#505050"
            bordercolor="#ffffff"
            borderopacity="1"
            inkscape:showpageshadow="0"
            inkscape:pageopacity="0"
            inkscape:pagecheckerboard="1"
            inkscape:deskcolor="#505050"
            showgrid="false"
            inkscape:zoom="1.9570312"
            inkscape:cx="237.3493"
            inkscape:cy="256"
            inkscape:window-width="2560"
            inkscape:window-height="1369"
            inkscape:window-x="2992"
            inkscape:window-y="-8"
            inkscape:window-maximized="1"
            inkscape:current-layer="svg11"/>
    <defs
            id="defs5">
        <symbol
                id="a"
                viewBox="0 0 359 260">
            <path
                    fill="none"
                    stroke="#e2e8f0"
                    stroke-linecap="round"
                    stroke-linejoin="round"
                    stroke-width="25"
                    d="M300.5 237.5a56 56 0 000-112l-2.5.1a83.9 83.9 0 00-153-64.2 56 56 0 00-84.6 48.1 56.6 56.6 0 00.8 9 60 60 0 0011.2 119"
                    id="path2"/>
        </symbol>
    </defs>
    <use
            xlink:href="#a"
            width="359"
            height="231"
            transform="translate(76.5 140.5)"
            id="use7"/>
    <path
            fill="#0a5ad4"
            transform="scale(1.5)"
            d="m 130,250 c -4.41828,0 -8,-3.58172 -8,-8 v -12 c 0,-4.41828 3.58172,-8 8,-8 4.41828,0 8,3.58172 8,8 v 12 c 0,4.41828 -3.58172,8 -8,8 z m 38.66667,41.33333 c -4.41828,0 -8,-3.58172 -8,-8 v -12 c 0,-4.41828 3.58172,-8 8,-8 4.41827,0 8,3.58172 8,8 v 12 c 0,4.41828 -3.58173,8 -8,8 z M 218,266.66667 c -4.41828,0 -8,-3.58172 -8,-8 v -12 c 0,-4.41828 3.58172,-8 8,-8 4.41828,0 8,3.58172 8,8 v 12 c 0,4.41828 -3.58172,8 -8,8 z"
            id="path9"
            style="stroke-width:1;stroke-dasharray:none"/>
</svg>
