<?xml version="1.0" encoding="UTF-8" standalone="no"?>
<svg
        xmlns:xlink="http://www.w3.org/1999/xlink"
        viewBox="0 0 512 512"
        version="1.1"
        id="svg353"
        xmlns="http://www.w3.org/2000/svg">
    <defs
            id="defs347">
        <linearGradient
                id="a"
                x1="1381.3"
                x2="1399.5"
                y1="-1144.7"
                y2="-1097.4"
                gradientTransform="rotate(-9 8002.567 8233.063)"
                gradientUnits="userSpaceOnUse">
            <stop
                    offset="0"
                    stop-color="#0b65ed"
                    id="stop328"/>
            <stop
                    offset=".5"
                    stop-color="#0a5ad4"
                    id="stop330"/>
            <stop
                    offset="1"
                    stop-color="#0950bc"
                    id="stop332"/>
        </linearGradient>
        <linearGradient
                xlink:href="#a"
                id="b"
                x1="1428.4"
                x2="1446.6"
                y1="-1084.7"
                y2="-1037.4"
                gradientTransform="rotate(-9 8009.537 8233.037)"/>
        <linearGradient
                xlink:href="#a"
                id="c"
                x1="1489.3"
                x2="1507.5"
                y1="-1111.6"
                y2="-1064.3"
                gradientTransform="rotate(-9 8016.566 8233.078)"/>
        <symbol
                id="d"
                viewBox="0 0 359 260">
            <path
                    fill="none"
                    stroke="#e2e8f0"
                    stroke-linecap="round"
                    stroke-linejoin="round"
                    stroke-width="25"
                    d="M300.5 237.5a56 56 0 000-112l-2.5.1a83.9 83.9 0 00-153-64.2 56 56 0 00-84.6 48.1 56.6 56.6 0 00.8 9 60 60 0 0011.2 119"
                    id="path337"/>
        </symbol>
        <symbol
                id="e"
                viewBox="0 0 129 110">
            <path
                    fill="url(#a)"
                    stroke="#0a5ad4"
                    stroke-miterlimit="10"
                    d="M20 56.5a8 8 0 01-8-8v-40a8 8 0 0116 0v40a8 8 0 01-8 8Z"
                    id="path340"/>
            <path
                    fill="url(#b)"
                    stroke="#0a5ad4"
                    stroke-miterlimit="10"
                    d="M55 100a8 8 0 01-8-8v-40a8 8 0 0116 0v40a8 8 0 01-8 8Z"
                    id="path342"/>
            <path
                    fill="url(#c)"
                    stroke="#0a5ad4"
                    stroke-miterlimit="10"
                    d="M95.5 74.5a8 8 0 01-8-8v-40a8 8 0 0116 0v40a8 8 0 01-8 8Z"
                    id="path344"/>
        </symbol>
    </defs>
    <use
            xlink:href="#d"
            width="359"
            height="231"
            transform="translate(76.5 140.5)"
            id="use349"/>
    <use
            xlink:href="#e"
            width="129"
            height="110"
            transform="matrix(1.5,0,0,1.5,177.5,328)"
            id="use351"/>
</svg>
